<?xml version="1.0" encoding="UTF-8"?>
<svg width="1440" height="900" viewBox="0 0 1440 900" fill="none" xmlns="http://www.w3.org/2000/svg">
  <path d="M1440 0H0V900H1440V0Z" fill="url(#paint0_linear)"/>
  <g opacity="0.4">
    <path d="M1086.29 669C1123.33 669 1153.29 639.033 1153.29 602C1153.29 564.967 1123.33 535 1086.29 535C1049.26 535 1019.29 564.967 1019.29 602C1019.29 639.033 1049.26 669 1086.29 669Z" fill="#7AB80E"/>
    <path d="M286.291 841C323.324 841 353.291 811.033 353.291 774C353.291 736.967 323.324 707 286.291 707C249.258 707 219.291 736.967 219.291 774C219.291 811.033 249.258 841 286.291 841Z" fill="#ED0D53"/>
    <path d="M716.291 223C753.324 223 783.291 193.033 783.291 156C783.291 118.967 753.324 89 716.291 89C679.258 89 649.291 118.967 649.291 156C649.291 193.033 679.258 223 716.291 223Z" fill="#7AB80E"/>
  </g>
  <defs>
    <linearGradient id="paint0_linear" x1="720" y1="0" x2="720" y2="900" gradientUnits="userSpaceOnUse">
      <stop stop-color="#FFFFFF"/>
      <stop offset="1" stop-color="#F5F5F5"/>
    </linearGradient>
  </defs>
</svg>